<?xml version="1.0" encoding="UTF-8" standalone="no"?>
<!DOCTYPE svg PUBLIC "-//W3C//DTD SVG 1.1//EN"
 "http://www.w3.org/Graphics/SVG/1.1/DTD/svg11.dtd">
<!-- Generated by graphviz version 3.0.0 (20220226.1711)
 -->
<!-- Title: dependencies Pages: 1 -->
<svg width="840pt" height="174pt"
 viewBox="0.00 0.00 840.00 173.80" xmlns="http://www.w3.org/2000/svg" xmlns:xlink="http://www.w3.org/1999/xlink">
<g id="graph0" class="graph" transform="scale(1 1) rotate(0) translate(4 169.8)">
<title>dependencies</title>
<polygon fill="white" stroke="transparent" points="-4,4 -4,-169.8 836,-169.8 836,4 -4,4"/>
<text text-anchor="middle" x="416" y="-8.2" font-family="sans-serif" font-size="14.00">dependencies</text>
<g id="clust1" class="cluster">
<title>cluster_DashboardModule</title>
<polygon fill="none" stroke="black" stroke-dasharray="1,5" points="8,-32.8 8,-157.8 824,-157.8 824,-32.8 8,-32.8"/>
</g>
<g id="clust2" class="cluster">
<title>cluster_DashboardModule_declarations</title>
<polygon fill="none" stroke="black" points="322,-40.8 322,-92.8 816,-92.8 816,-40.8 322,-40.8"/>
</g>
<g id="clust6" class="cluster">
<title>cluster_DashboardModule_imports</title>
<polygon fill="none" stroke="black" points="16,-40.8 16,-92.8 314,-92.8 314,-40.8 16,-40.8"/>
</g>
<!-- DashboardComponent -->
<g id="node1" class="node">
<title>DashboardComponent</title>
<polygon fill="#ffffb3" stroke="black" points="807.98,-84.8 666.02,-84.8 666.02,-48.8 807.98,-48.8 807.98,-84.8"/>
<text text-anchor="middle" x="737" y="-62.6" font-family="Times,serif" font-size="14.00">DashboardComponent</text>
</g>
<!-- DashboardModule -->
<g id="node4" class="node">
<title>DashboardModule</title>
<polygon fill="#8dd3c7" stroke="black" points="467.2,-149.8 464.2,-153.8 443.2,-153.8 440.2,-149.8 346.8,-149.8 346.8,-113.8 467.2,-113.8 467.2,-149.8"/>
<text text-anchor="middle" x="407" y="-127.6" font-family="Times,serif" font-size="14.00">DashboardModule</text>
</g>
<!-- DashboardComponent&#45;&gt;DashboardModule -->
<g id="edge1" class="edge">
<title>DashboardComponent&#45;&gt;DashboardModule</title>
<path fill="none" stroke="black" d="M737,-85.08C737,-106.12 737,-137.8 737,-137.8 737,-137.8 477.14,-137.8 477.14,-137.8"/>
<polygon fill="black" stroke="black" points="477.14,-134.3 467.14,-137.8 477.14,-141.3 477.14,-134.3"/>
</g>
<!-- RoverPanelComponent -->
<g id="node2" class="node">
<title>RoverPanelComponent</title>
<polygon fill="#ffffb3" stroke="black" points="648.15,-84.8 501.85,-84.8 501.85,-48.8 648.15,-48.8 648.15,-84.8"/>
<text text-anchor="middle" x="575" y="-62.6" font-family="Times,serif" font-size="14.00">RoverPanelComponent</text>
</g>
<!-- RoverPanelComponent&#45;&gt;DashboardModule -->
<g id="edge2" class="edge">
<title>RoverPanelComponent&#45;&gt;DashboardModule</title>
<path fill="none" stroke="black" d="M575,-84.82C575,-102.17 575,-125.8 575,-125.8 575,-125.8 477.18,-125.8 477.18,-125.8"/>
<polygon fill="black" stroke="black" points="477.18,-122.3 467.18,-125.8 477.18,-129.3 477.18,-122.3"/>
</g>
<!-- RoverPhotosComponent -->
<g id="node3" class="node">
<title>RoverPhotosComponent</title>
<polygon fill="#ffffb3" stroke="black" points="483.67,-84.8 330.33,-84.8 330.33,-48.8 483.67,-48.8 483.67,-84.8"/>
<text text-anchor="middle" x="407" y="-62.6" font-family="Times,serif" font-size="14.00">RoverPhotosComponent</text>
</g>
<!-- RoverPhotosComponent&#45;&gt;DashboardModule -->
<g id="edge3" class="edge">
<title>RoverPhotosComponent&#45;&gt;DashboardModule</title>
<path fill="none" stroke="black" d="M407,-84.91C407,-84.91 407,-103.79 407,-103.79"/>
<polygon fill="black" stroke="black" points="403.5,-103.79 407,-113.79 410.5,-103.79 403.5,-103.79"/>
</g>
<!-- DashboardRoutingModule -->
<g id="node5" class="node">
<title>DashboardRoutingModule</title>
<polygon fill="#8dd3c7" stroke="black" points="305.82,-84.8 302.82,-88.8 281.82,-88.8 278.82,-84.8 140.18,-84.8 140.18,-48.8 305.82,-48.8 305.82,-84.8"/>
<text text-anchor="middle" x="223" y="-62.6" font-family="Times,serif" font-size="14.00">DashboardRoutingModule</text>
</g>
<!-- DashboardRoutingModule&#45;&gt;DashboardModule -->
<g id="edge4" class="edge">
<title>DashboardRoutingModule&#45;&gt;DashboardModule</title>
<path fill="none" stroke="black" d="M223,-84.82C223,-102.17 223,-125.8 223,-125.8 223,-125.8 336.75,-125.8 336.75,-125.8"/>
<polygon fill="black" stroke="black" points="336.75,-129.3 346.75,-125.8 336.75,-122.3 336.75,-129.3"/>
</g>
<!-- SharedModule -->
<g id="node6" class="node">
<title>SharedModule</title>
<polygon fill="#8dd3c7" stroke="black" points="122.43,-84.8 119.43,-88.8 98.43,-88.8 95.43,-84.8 23.57,-84.8 23.57,-48.8 122.43,-48.8 122.43,-84.8"/>
<text text-anchor="middle" x="73" y="-62.6" font-family="Times,serif" font-size="14.00">SharedModule</text>
</g>
<!-- SharedModule&#45;&gt;DashboardModule -->
<g id="edge5" class="edge">
<title>SharedModule&#45;&gt;DashboardModule</title>
<path fill="none" stroke="black" d="M73,-85.08C73,-106.12 73,-137.8 73,-137.8 73,-137.8 336.52,-137.8 336.52,-137.8"/>
<polygon fill="black" stroke="black" points="336.52,-141.3 346.52,-137.8 336.52,-134.3 336.52,-141.3"/>
</g>
</g>
</svg>
