<?xml version="1.0" encoding="UTF-8" standalone="no"?>
<!DOCTYPE svg PUBLIC "-//W3C//DTD SVG 1.1//EN"
 "http://www.w3.org/Graphics/SVG/1.1/DTD/svg11.dtd">
<!-- Generated by graphviz version 3.0.0 (20220226.1711)
 -->
<!-- Title: dependencies Pages: 1 -->
<svg width="766pt" height="247pt"
 viewBox="0.00 0.00 766.00 246.80" xmlns="http://www.w3.org/2000/svg" xmlns:xlink="http://www.w3.org/1999/xlink">
<g id="graph0" class="graph" transform="scale(1 1) rotate(0) translate(4 242.8)">
<title>dependencies</title>
<polygon fill="white" stroke="transparent" points="-4,4 -4,-242.8 762,-242.8 762,4 -4,4"/>
<text text-anchor="middle" x="379" y="-8.2" font-family="sans-serif" font-size="14.00">dependencies</text>
<g id="clust1" class="cluster">
<title>cluster_SharedModule</title>
<polygon fill="none" stroke="black" stroke-dasharray="1,5" points="8,-32.8 8,-230.8 750,-230.8 750,-32.8 8,-32.8"/>
</g>
<g id="clust8" class="cluster">
<title>cluster_SharedModule_exports</title>
<polygon fill="none" stroke="black" points="16,-170.8 16,-222.8 742,-222.8 742,-170.8 16,-170.8"/>
</g>
<g id="clust2" class="cluster">
<title>cluster_SharedModule_declarations</title>
<polygon fill="none" stroke="black" points="24,-40.8 24,-92.8 736,-92.8 736,-40.8 24,-40.8"/>
</g>
<!-- ErrorDialogLauncherComponent -->
<g id="node1" class="node">
<title>ErrorDialogLauncherComponent</title>
<polygon fill="#ffffb3" stroke="black" points="727.83,-84.8 526.17,-84.8 526.17,-48.8 727.83,-48.8 727.83,-84.8"/>
<text text-anchor="middle" x="627" y="-62.6" font-family="Times,serif" font-size="14.00">ErrorDialogLauncherComponent</text>
</g>
<!-- SharedModule -->
<g id="node5" class="node">
<title>SharedModule</title>
<polygon fill="#8dd3c7" stroke="black" points="296.43,-149.8 293.43,-153.8 272.43,-153.8 269.43,-149.8 197.57,-149.8 197.57,-113.8 296.43,-113.8 296.43,-149.8"/>
<text text-anchor="middle" x="247" y="-127.6" font-family="Times,serif" font-size="14.00">SharedModule</text>
</g>
<!-- ErrorDialogLauncherComponent&#45;&gt;SharedModule -->
<g id="edge1" class="edge">
<title>ErrorDialogLauncherComponent&#45;&gt;SharedModule</title>
<path fill="none" stroke="black" d="M661.39,-85.07C661.39,-103.36 661.39,-128.8 661.39,-128.8 661.39,-128.8 306.57,-128.8 306.57,-128.8"/>
<polygon fill="black" stroke="black" points="306.57,-125.3 296.57,-128.8 306.57,-132.3 306.57,-125.3"/>
</g>
<!-- ErrorDialogPopupComponent -->
<g id="node2" class="node">
<title>ErrorDialogPopupComponent</title>
<polygon fill="#ffffb3" stroke="black" points="508.26,-84.8 323.74,-84.8 323.74,-48.8 508.26,-48.8 508.26,-84.8"/>
<text text-anchor="middle" x="416" y="-62.6" font-family="Times,serif" font-size="14.00">ErrorDialogPopupComponent</text>
</g>
<!-- ErrorDialogPopupComponent&#45;&gt;SharedModule -->
<g id="edge2" class="edge">
<title>ErrorDialogPopupComponent&#45;&gt;SharedModule</title>
<path fill="none" stroke="black" d="M446.79,-84.81C446.79,-100.85 446.79,-121.8 446.79,-121.8 446.79,-121.8 306.39,-121.8 306.39,-121.8"/>
<polygon fill="black" stroke="black" points="306.39,-118.3 296.39,-121.8 306.39,-125.3 306.39,-118.3"/>
</g>
<!-- LoaderComponent -->
<g id="node3" class="node">
<title>LoaderComponent</title>
<polygon fill="#ffffb3" stroke="black" points="305.47,-84.8 184.53,-84.8 184.53,-48.8 305.47,-48.8 305.47,-84.8"/>
<text text-anchor="middle" x="245" y="-62.6" font-family="Times,serif" font-size="14.00">LoaderComponent</text>
</g>
<!-- LoaderComponent&#45;&gt;SharedModule -->
<g id="edge3" class="edge">
<title>LoaderComponent&#45;&gt;SharedModule</title>
<path fill="none" stroke="black" d="M247,-84.91C247,-84.91 247,-103.79 247,-103.79"/>
<polygon fill="black" stroke="black" points="243.5,-103.79 247,-113.79 250.5,-103.79 243.5,-103.79"/>
</g>
<!-- PaginatorComponent -->
<g id="node4" class="node">
<title>PaginatorComponent</title>
<polygon fill="#ffffb3" stroke="black" points="166.49,-84.8 31.51,-84.8 31.51,-48.8 166.49,-48.8 166.49,-84.8"/>
<text text-anchor="middle" x="99" y="-62.6" font-family="Times,serif" font-size="14.00">PaginatorComponent</text>
</g>
<!-- PaginatorComponent&#45;&gt;SharedModule -->
<g id="edge4" class="edge">
<title>PaginatorComponent&#45;&gt;SharedModule</title>
<path fill="none" stroke="black" d="M118.66,-84.82C118.66,-102.17 118.66,-125.8 118.66,-125.8 118.66,-125.8 187.75,-125.8 187.75,-125.8"/>
<polygon fill="black" stroke="black" points="187.75,-129.3 197.75,-125.8 187.75,-122.3 187.75,-129.3"/>
</g>
<!-- ErrorDialogLauncherComponent  -->
<g id="node6" class="node">
<title>ErrorDialogLauncherComponent </title>
<polygon fill="#fb8072" stroke="black" points="733.83,-214.8 528.17,-214.8 528.17,-178.8 733.83,-178.8 733.83,-214.8"/>
<text text-anchor="middle" x="631" y="-192.6" font-family="Times,serif" font-size="14.00">ErrorDialogLauncherComponent </text>
</g>
<!-- SharedModule&#45;&gt;ErrorDialogLauncherComponent  -->
<g id="edge5" class="edge">
<title>SharedModule&#45;&gt;ErrorDialogLauncherComponent </title>
<path fill="none" stroke="black" stroke-dasharray="5,2" d="M296.47,-135.8C392.51,-135.8 594.86,-135.8 594.86,-135.8 594.86,-135.8 594.86,-168.5 594.86,-168.5"/>
<polygon fill="black" stroke="black" points="591.36,-168.5 594.86,-178.5 598.36,-168.5 591.36,-168.5"/>
</g>
<!-- ErrorDialogPopupComponent  -->
<g id="node7" class="node">
<title>ErrorDialogPopupComponent </title>
<polygon fill="#fb8072" stroke="black" points="510.26,-214.8 321.74,-214.8 321.74,-178.8 510.26,-178.8 510.26,-214.8"/>
<text text-anchor="middle" x="416" y="-192.6" font-family="Times,serif" font-size="14.00">ErrorDialogPopupComponent </text>
</g>
<!-- SharedModule&#45;&gt;ErrorDialogPopupComponent  -->
<g id="edge6" class="edge">
<title>SharedModule&#45;&gt;ErrorDialogPopupComponent </title>
<path fill="none" stroke="black" stroke-dasharray="5,2" d="M296.51,-142.8C336.16,-142.8 385.21,-142.8 385.21,-142.8 385.21,-142.8 385.21,-168.52 385.21,-168.52"/>
<polygon fill="black" stroke="black" points="381.71,-168.52 385.21,-178.52 388.71,-168.52 381.71,-168.52"/>
</g>
<!-- LoaderComponent  -->
<g id="node8" class="node">
<title>LoaderComponent </title>
<polygon fill="#fb8072" stroke="black" points="304.47,-214.8 179.53,-214.8 179.53,-178.8 304.47,-178.8 304.47,-214.8"/>
<text text-anchor="middle" x="242" y="-192.6" font-family="Times,serif" font-size="14.00">LoaderComponent </text>
</g>
<!-- SharedModule&#45;&gt;LoaderComponent  -->
<g id="edge7" class="edge">
<title>SharedModule&#45;&gt;LoaderComponent </title>
<path fill="none" stroke="black" stroke-dasharray="5,2" d="M247,-149.91C247,-149.91 247,-168.79 247,-168.79"/>
<polygon fill="black" stroke="black" points="243.5,-168.79 247,-178.79 250.5,-168.79 243.5,-168.79"/>
</g>
<!-- PaginatorComponent  -->
<g id="node9" class="node">
<title>PaginatorComponent </title>
<polygon fill="#fb8072" stroke="black" points="162.49,-214.8 23.51,-214.8 23.51,-178.8 162.49,-178.8 162.49,-214.8"/>
<text text-anchor="middle" x="93" y="-192.6" font-family="Times,serif" font-size="14.00">PaginatorComponent </text>
</g>
<!-- SharedModule&#45;&gt;PaginatorComponent  -->
<g id="edge8" class="edge">
<title>SharedModule&#45;&gt;PaginatorComponent </title>
<path fill="none" stroke="black" stroke-dasharray="5,2" d="M197.74,-137.8C146.94,-137.8 75.09,-137.8 75.09,-137.8 75.09,-137.8 75.09,-168.78 75.09,-168.78"/>
<polygon fill="black" stroke="black" points="71.59,-168.78 75.09,-178.78 78.59,-168.78 71.59,-168.78"/>
</g>
</g>
</svg>
