<?xml version="1.0" encoding="UTF-8" standalone="no"?>
<!DOCTYPE svg PUBLIC "-//W3C//DTD SVG 1.1//EN"
 "http://www.w3.org/Graphics/SVG/1.1/DTD/svg11.dtd">
<!-- Generated by graphviz version 3.0.0 (20220226.1711)
 -->
<!-- Title: dependencies Pages: 1 -->
<svg width="460pt" height="174pt"
 viewBox="0.00 0.00 460.00 173.80" xmlns="http://www.w3.org/2000/svg" xmlns:xlink="http://www.w3.org/1999/xlink">
<g id="graph0" class="graph" transform="scale(1 1) rotate(0) translate(4 169.8)">
<title>dependencies</title>
<polygon fill="white" stroke="transparent" points="-4,4 -4,-169.8 456,-169.8 456,4 -4,4"/>
<text text-anchor="middle" x="226" y="-8.2" font-family="sans-serif" font-size="14.00">dependencies</text>
<g id="clust1" class="cluster">
<title>cluster_DetailsModule</title>
<polygon fill="none" stroke="black" stroke-dasharray="1,5" points="8,-32.8 8,-157.8 444,-157.8 444,-32.8 8,-32.8"/>
</g>
<g id="clust2" class="cluster">
<title>cluster_DetailsModule_declarations</title>
<polygon fill="none" stroke="black" points="300,-40.8 300,-92.8 436,-92.8 436,-40.8 300,-40.8"/>
</g>
<g id="clust4" class="cluster">
<title>cluster_DetailsModule_imports</title>
<polygon fill="none" stroke="black" points="16,-40.8 16,-92.8 292,-92.8 292,-40.8 16,-40.8"/>
</g>
<!-- DetailsComponent -->
<g id="node1" class="node">
<title>DetailsComponent</title>
<polygon fill="#ffffb3" stroke="black" points="428.49,-84.8 307.51,-84.8 307.51,-48.8 428.49,-48.8 428.49,-84.8"/>
<text text-anchor="middle" x="368" y="-62.6" font-family="Times,serif" font-size="14.00">DetailsComponent</text>
</g>
<!-- DetailsModule -->
<g id="node2" class="node">
<title>DetailsModule</title>
<polygon fill="#8dd3c7" stroke="black" points="261.71,-149.8 258.71,-153.8 237.71,-153.8 234.71,-149.8 162.29,-149.8 162.29,-113.8 261.71,-113.8 261.71,-149.8"/>
<text text-anchor="middle" x="212" y="-127.6" font-family="Times,serif" font-size="14.00">DetailsModule</text>
</g>
<!-- DetailsComponent&#45;&gt;DetailsModule -->
<g id="edge1" class="edge">
<title>DetailsComponent&#45;&gt;DetailsModule</title>
<path fill="none" stroke="black" d="M368,-84.91C368,-104.14 368,-131.8 368,-131.8 368,-131.8 271.79,-131.8 271.79,-131.8"/>
<polygon fill="black" stroke="black" points="271.79,-128.3 261.79,-131.8 271.79,-135.3 271.79,-128.3"/>
</g>
<!-- DetailsRoutingModule -->
<g id="node3" class="node">
<title>DetailsRoutingModule</title>
<polygon fill="#8dd3c7" stroke="black" points="284.32,-84.8 281.32,-88.8 260.32,-88.8 257.32,-84.8 139.68,-84.8 139.68,-48.8 284.32,-48.8 284.32,-84.8"/>
<text text-anchor="middle" x="212" y="-62.6" font-family="Times,serif" font-size="14.00">DetailsRoutingModule</text>
</g>
<!-- DetailsRoutingModule&#45;&gt;DetailsModule -->
<g id="edge2" class="edge">
<title>DetailsRoutingModule&#45;&gt;DetailsModule</title>
<path fill="none" stroke="black" d="M212,-84.91C212,-84.91 212,-103.79 212,-103.79"/>
<polygon fill="black" stroke="black" points="208.5,-103.79 212,-113.79 215.5,-103.79 208.5,-103.79"/>
</g>
<!-- SharedModule -->
<g id="node4" class="node">
<title>SharedModule</title>
<polygon fill="#8dd3c7" stroke="black" points="122.43,-84.8 119.43,-88.8 98.43,-88.8 95.43,-84.8 23.57,-84.8 23.57,-48.8 122.43,-48.8 122.43,-84.8"/>
<text text-anchor="middle" x="73" y="-62.6" font-family="Times,serif" font-size="14.00">SharedModule</text>
</g>
<!-- SharedModule&#45;&gt;DetailsModule -->
<g id="edge3" class="edge">
<title>SharedModule&#45;&gt;DetailsModule</title>
<path fill="none" stroke="black" d="M73,-84.91C73,-104.14 73,-131.8 73,-131.8 73,-131.8 152.21,-131.8 152.21,-131.8"/>
<polygon fill="black" stroke="black" points="152.21,-135.3 162.21,-131.8 152.21,-128.3 152.21,-135.3"/>
</g>
</g>
</svg>
