<?xml version="1.0" encoding="UTF-8" standalone="no"?>
<!DOCTYPE svg PUBLIC "-//W3C//DTD SVG 1.1//EN"
 "http://www.w3.org/Graphics/SVG/1.1/DTD/svg11.dtd">
<!-- Generated by graphviz version 3.0.0 (20220226.1711)
 -->
<!-- Title: dependencies Pages: 1 -->
<svg width="2936pt" height="253pt"
 viewBox="0.00 0.00 2936.00 252.80" xmlns="http://www.w3.org/2000/svg" xmlns:xlink="http://www.w3.org/1999/xlink">
<g id="graph0" class="graph" transform="scale(1 1) rotate(0) translate(4 248.8)">
<title>dependencies</title>
<polygon fill="white" stroke="transparent" points="-4,4 -4,-248.8 2932,-248.8 2932,4 -4,4"/>
<text text-anchor="middle" x="1464" y="-8.2" font-family="sans-serif" font-size="14.00">dependencies</text>
<g id="clust1" class="cluster">
<title>cluster_AppModule</title>
<polygon fill="none" stroke="black" stroke-dasharray="1,5" points="8,-32.8 8,-236.8 298,-236.8 298,-32.8 8,-32.8"/>
</g>
<g id="clust2" class="cluster">
<title>cluster_AppModule_declarations</title>
<polygon fill="none" stroke="black" points="168,-40.8 168,-92.8 290,-92.8 290,-40.8 168,-40.8"/>
</g>
<g id="clust4" class="cluster">
<title>cluster_AppModule_imports</title>
<polygon fill="none" stroke="black" points="16,-40.8 16,-92.8 160,-92.8 160,-40.8 16,-40.8"/>
</g>
<g id="clust6" class="cluster">
<title>cluster_AppModule_bootstrap</title>
<polygon fill="none" stroke="black" points="96,-176.8 96,-228.8 220,-228.8 220,-176.8 96,-176.8"/>
</g>
<g id="clust14" class="cluster">
<title>cluster_DashboardModule</title>
<polygon fill="none" stroke="black" stroke-dasharray="1,5" points="306,-32.8 306,-160.8 1122,-160.8 1122,-32.8 306,-32.8"/>
</g>
<g id="clust15" class="cluster">
<title>cluster_DashboardModule_declarations</title>
<polygon fill="none" stroke="black" points="314,-40.8 314,-92.8 808,-92.8 808,-40.8 314,-40.8"/>
</g>
<g id="clust19" class="cluster">
<title>cluster_DashboardModule_imports</title>
<polygon fill="none" stroke="black" points="816,-40.8 816,-92.8 1114,-92.8 1114,-40.8 816,-40.8"/>
</g>
<g id="clust29" class="cluster">
<title>cluster_DetailsModule</title>
<polygon fill="none" stroke="black" stroke-dasharray="1,5" points="2600,-32.8 2600,-160.8 2920,-160.8 2920,-32.8 2600,-32.8"/>
</g>
<g id="clust30" class="cluster">
<title>cluster_DetailsModule_declarations</title>
<polygon fill="none" stroke="black" points="2776,-40.8 2776,-92.8 2912,-92.8 2912,-40.8 2776,-40.8"/>
</g>
<g id="clust32" class="cluster">
<title>cluster_DetailsModule_imports</title>
<polygon fill="none" stroke="black" points="2608,-40.8 2608,-92.8 2768,-92.8 2768,-40.8 2608,-40.8"/>
</g>
<g id="clust42" class="cluster">
<title>cluster_SharedModule</title>
<polygon fill="none" stroke="black" stroke-dasharray="1,5" points="1130,-100.8 1130,-168.8 2592,-168.8 2592,-100.8 1130,-100.8"/>
</g>
<g id="clust43" class="cluster">
<title>cluster_SharedModule_declarations</title>
<polygon fill="none" stroke="black" points="1872,-108.8 1872,-160.8 2584,-160.8 2584,-108.8 1872,-108.8"/>
</g>
<g id="clust49" class="cluster">
<title>cluster_SharedModule_exports</title>
<polygon fill="none" stroke="black" points="1138,-108.8 1138,-160.8 1864,-160.8 1864,-108.8 1138,-108.8"/>
</g>
<!-- AppComponent -->
<g id="node1" class="node">
<title>AppComponent</title>
<polygon fill="#ffffb3" stroke="black" points="281.94,-84.8 176.06,-84.8 176.06,-48.8 281.94,-48.8 281.94,-84.8"/>
<text text-anchor="middle" x="229" y="-62.6" font-family="Times,serif" font-size="14.00">AppComponent</text>
</g>
<!-- AppModule -->
<g id="node2" class="node">
<title>AppModule</title>
<polygon fill="#8dd3c7" stroke="black" points="199.66,-152.8 196.66,-156.8 175.66,-156.8 172.66,-152.8 116.34,-152.8 116.34,-116.8 199.66,-116.8 199.66,-152.8"/>
<text text-anchor="middle" x="158" y="-130.6" font-family="Times,serif" font-size="14.00">AppModule</text>
</g>
<!-- AppComponent&#45;&gt;AppModule -->
<g id="edge1" class="edge">
<title>AppComponent&#45;&gt;AppModule</title>
<path fill="none" stroke="black" d="M188.06,-85.02C188.06,-85.02 188.06,-106.53 188.06,-106.53"/>
<polygon fill="black" stroke="black" points="184.56,-106.53 188.06,-116.53 191.56,-106.53 184.56,-106.53"/>
</g>
<!-- AppComponent  -->
<g id="node4" class="node">
<title>AppComponent </title>
<polygon fill="#80b1d3" stroke="black" points="212.44,-220.8 103.56,-220.8 103.56,-184.8 212.44,-184.8 212.44,-220.8"/>
<text text-anchor="middle" x="158" y="-198.6" font-family="Times,serif" font-size="14.00">AppComponent </text>
</g>
<!-- AppModule&#45;&gt;AppComponent  -->
<g id="edge3" class="edge">
<title>AppModule&#45;&gt;AppComponent </title>
<path fill="none" stroke="black" stroke-dasharray="1,5" d="M158,-153.02C158,-153.02 158,-174.53 158,-174.53"/>
<polygon fill="black" stroke="black" points="154.5,-174.53 158,-184.53 161.5,-174.53 154.5,-174.53"/>
</g>
<!-- AppRoutingModule -->
<g id="node3" class="node">
<title>AppRoutingModule</title>
<polygon fill="#8dd3c7" stroke="black" points="152.28,-84.8 149.28,-88.8 128.28,-88.8 125.28,-84.8 23.72,-84.8 23.72,-48.8 152.28,-48.8 152.28,-84.8"/>
<text text-anchor="middle" x="88" y="-62.6" font-family="Times,serif" font-size="14.00">AppRoutingModule</text>
</g>
<!-- AppRoutingModule&#45;&gt;AppModule -->
<g id="edge2" class="edge">
<title>AppRoutingModule&#45;&gt;AppModule</title>
<path fill="none" stroke="black" d="M134.28,-85.02C134.28,-85.02 134.28,-106.53 134.28,-106.53"/>
<polygon fill="black" stroke="black" points="130.78,-106.53 134.28,-116.53 137.78,-106.53 130.78,-106.53"/>
</g>
<!-- DashboardComponent -->
<g id="node5" class="node">
<title>DashboardComponent</title>
<polygon fill="#ffffb3" stroke="black" points="799.98,-84.8 658.02,-84.8 658.02,-48.8 799.98,-48.8 799.98,-84.8"/>
<text text-anchor="middle" x="729" y="-62.6" font-family="Times,serif" font-size="14.00">DashboardComponent</text>
</g>
<!-- DashboardModule -->
<g id="node8" class="node">
<title>DashboardModule</title>
<polygon fill="#8dd3c7" stroke="black" points="789.2,-152.8 786.2,-156.8 765.2,-156.8 762.2,-152.8 668.8,-152.8 668.8,-116.8 789.2,-116.8 789.2,-152.8"/>
<text text-anchor="middle" x="729" y="-130.6" font-family="Times,serif" font-size="14.00">DashboardModule</text>
</g>
<!-- DashboardComponent&#45;&gt;DashboardModule -->
<g id="edge4" class="edge">
<title>DashboardComponent&#45;&gt;DashboardModule</title>
<path fill="none" stroke="black" d="M729,-85.02C729,-85.02 729,-106.53 729,-106.53"/>
<polygon fill="black" stroke="black" points="725.5,-106.53 729,-116.53 732.5,-106.53 725.5,-106.53"/>
</g>
<!-- RoverPanelComponent -->
<g id="node6" class="node">
<title>RoverPanelComponent</title>
<polygon fill="#ffffb3" stroke="black" points="640.15,-84.8 493.85,-84.8 493.85,-48.8 640.15,-48.8 640.15,-84.8"/>
<text text-anchor="middle" x="567" y="-62.6" font-family="Times,serif" font-size="14.00">RoverPanelComponent</text>
</g>
<!-- RoverPanelComponent&#45;&gt;DashboardModule -->
<g id="edge5" class="edge">
<title>RoverPanelComponent&#45;&gt;DashboardModule</title>
<path fill="none" stroke="black" d="M567,-85.07C567,-103.36 567,-128.8 567,-128.8 567,-128.8 658.68,-128.8 658.68,-128.8"/>
<polygon fill="black" stroke="black" points="658.68,-132.3 668.68,-128.8 658.68,-125.3 658.68,-132.3"/>
</g>
<!-- RoverPhotosComponent -->
<g id="node7" class="node">
<title>RoverPhotosComponent</title>
<polygon fill="#ffffb3" stroke="black" points="475.67,-84.8 322.33,-84.8 322.33,-48.8 475.67,-48.8 475.67,-84.8"/>
<text text-anchor="middle" x="399" y="-62.6" font-family="Times,serif" font-size="14.00">RoverPhotosComponent</text>
</g>
<!-- RoverPhotosComponent&#45;&gt;DashboardModule -->
<g id="edge6" class="edge">
<title>RoverPhotosComponent&#45;&gt;DashboardModule</title>
<path fill="none" stroke="black" d="M399,-85.09C399,-107.01 399,-140.8 399,-140.8 399,-140.8 658.86,-140.8 658.86,-140.8"/>
<polygon fill="black" stroke="black" points="658.86,-144.3 668.86,-140.8 658.86,-137.3 658.86,-144.3"/>
</g>
<!-- DashboardRoutingModule -->
<g id="node9" class="node">
<title>DashboardRoutingModule</title>
<polygon fill="#8dd3c7" stroke="black" points="989.82,-84.8 986.82,-88.8 965.82,-88.8 962.82,-84.8 824.18,-84.8 824.18,-48.8 989.82,-48.8 989.82,-84.8"/>
<text text-anchor="middle" x="907" y="-62.6" font-family="Times,serif" font-size="14.00">DashboardRoutingModule</text>
</g>
<!-- DashboardRoutingModule&#45;&gt;DashboardModule -->
<g id="edge7" class="edge">
<title>DashboardRoutingModule&#45;&gt;DashboardModule</title>
<path fill="none" stroke="black" d="M907,-84.82C907,-102.17 907,-125.8 907,-125.8 907,-125.8 799.26,-125.8 799.26,-125.8"/>
<polygon fill="black" stroke="black" points="799.26,-122.3 789.26,-125.8 799.26,-129.3 799.26,-122.3"/>
</g>
<!-- SharedModule -->
<g id="node10" class="node">
<title>SharedModule</title>
<polygon fill="#8dd3c7" stroke="black" points="1106.43,-84.8 1103.43,-88.8 1082.43,-88.8 1079.43,-84.8 1007.57,-84.8 1007.57,-48.8 1106.43,-48.8 1106.43,-84.8"/>
<text text-anchor="middle" x="1057" y="-62.6" font-family="Times,serif" font-size="14.00">SharedModule</text>
</g>
<!-- SharedModule&#45;&gt;DashboardModule -->
<g id="edge8" class="edge">
<title>SharedModule&#45;&gt;DashboardModule</title>
<path fill="none" stroke="black" d="M1040.6,-85.02C1040.6,-105.17 1040.6,-134.8 1040.6,-134.8 1040.6,-134.8 799.45,-134.8 799.45,-134.8"/>
<polygon fill="black" stroke="black" points="799.45,-131.3 789.45,-134.8 799.45,-138.3 799.45,-131.3"/>
</g>
<!-- DetailsModule -->
<g id="node12" class="node">
<title>DetailsModule</title>
<polygon fill="#8dd3c7" stroke="black" points="2737.71,-152.8 2734.71,-156.8 2713.71,-156.8 2710.71,-152.8 2638.29,-152.8 2638.29,-116.8 2737.71,-116.8 2737.71,-152.8"/>
<text text-anchor="middle" x="2688" y="-130.6" font-family="Times,serif" font-size="14.00">DetailsModule</text>
</g>
<!-- SharedModule&#45;&gt;DetailsModule -->
<g id="edge11" class="edge">
<title>SharedModule&#45;&gt;DetailsModule</title>
<path fill="none" stroke="black" d="M1106.46,-52.8C1369.86,-52.8 2595.88,-52.8 2595.88,-52.8 2595.88,-52.8 2595.88,-134.8 2595.88,-134.8 2595.88,-134.8 2628.16,-134.8 2628.16,-134.8"/>
<polygon fill="black" stroke="black" points="2628.16,-138.3 2638.16,-134.8 2628.16,-131.3 2628.16,-138.3"/>
</g>
<!-- ErrorDialogLauncherComponent  -->
<g id="node18" class="node">
<title>ErrorDialogLauncherComponent </title>
<polygon fill="#fb8072" stroke="black" points="1855.83,-152.8 1650.17,-152.8 1650.17,-116.8 1855.83,-116.8 1855.83,-152.8"/>
<text text-anchor="middle" x="1753" y="-130.6" font-family="Times,serif" font-size="14.00">ErrorDialogLauncherComponent </text>
</g>
<!-- SharedModule&#45;&gt;ErrorDialogLauncherComponent  -->
<g id="edge16" class="edge">
<title>SharedModule&#45;&gt;ErrorDialogLauncherComponent </title>
<path fill="none" stroke="black" stroke-dasharray="5,2" d="M1106.22,-72.8C1264.94,-72.8 1753,-72.8 1753,-72.8 1753,-72.8 1753,-106.53 1753,-106.53"/>
<polygon fill="black" stroke="black" points="1749.5,-106.53 1753,-116.53 1756.5,-106.53 1749.5,-106.53"/>
</g>
<!-- ErrorDialogPopupComponent  -->
<g id="node19" class="node">
<title>ErrorDialogPopupComponent </title>
<polygon fill="#fb8072" stroke="black" points="1632.26,-152.8 1443.74,-152.8 1443.74,-116.8 1632.26,-116.8 1632.26,-152.8"/>
<text text-anchor="middle" x="1538" y="-130.6" font-family="Times,serif" font-size="14.00">ErrorDialogPopupComponent </text>
</g>
<!-- SharedModule&#45;&gt;ErrorDialogPopupComponent  -->
<g id="edge17" class="edge">
<title>SharedModule&#45;&gt;ErrorDialogPopupComponent </title>
<path fill="none" stroke="black" stroke-dasharray="5,2" d="M1106.21,-76.8C1228.81,-76.8 1538,-76.8 1538,-76.8 1538,-76.8 1538,-106.77 1538,-106.77"/>
<polygon fill="black" stroke="black" points="1534.5,-106.77 1538,-116.77 1541.5,-106.77 1534.5,-106.77"/>
</g>
<!-- LoaderComponent  -->
<g id="node20" class="node">
<title>LoaderComponent </title>
<polygon fill="#fb8072" stroke="black" points="1426.47,-152.8 1301.53,-152.8 1301.53,-116.8 1426.47,-116.8 1426.47,-152.8"/>
<text text-anchor="middle" x="1364" y="-130.6" font-family="Times,serif" font-size="14.00">LoaderComponent </text>
</g>
<!-- SharedModule&#45;&gt;LoaderComponent  -->
<g id="edge18" class="edge">
<title>SharedModule&#45;&gt;LoaderComponent </title>
<path fill="none" stroke="black" stroke-dasharray="5,2" d="M1106.32,-80.8C1193.11,-80.8 1364,-80.8 1364,-80.8 1364,-80.8 1364,-106.52 1364,-106.52"/>
<polygon fill="black" stroke="black" points="1360.5,-106.52 1364,-116.52 1367.5,-106.52 1360.5,-106.52"/>
</g>
<!-- PaginatorComponent  -->
<g id="node21" class="node">
<title>PaginatorComponent </title>
<polygon fill="#fb8072" stroke="black" points="1284.49,-152.8 1145.51,-152.8 1145.51,-116.8 1284.49,-116.8 1284.49,-152.8"/>
<text text-anchor="middle" x="1215" y="-130.6" font-family="Times,serif" font-size="14.00">PaginatorComponent </text>
</g>
<!-- SharedModule&#45;&gt;PaginatorComponent  -->
<g id="edge19" class="edge">
<title>SharedModule&#45;&gt;PaginatorComponent </title>
<path fill="none" stroke="black" stroke-dasharray="5,2" d="M1073.4,-85.05C1073.4,-107.82 1073.4,-143.8 1073.4,-143.8 1073.4,-143.8 1135.45,-143.8 1135.45,-143.8"/>
<polygon fill="black" stroke="black" points="1135.45,-147.3 1145.45,-143.8 1135.45,-140.3 1135.45,-147.3"/>
</g>
<!-- DetailsComponent -->
<g id="node11" class="node">
<title>DetailsComponent</title>
<polygon fill="#ffffb3" stroke="black" points="2904.49,-84.8 2783.51,-84.8 2783.51,-48.8 2904.49,-48.8 2904.49,-84.8"/>
<text text-anchor="middle" x="2844" y="-62.6" font-family="Times,serif" font-size="14.00">DetailsComponent</text>
</g>
<!-- DetailsComponent&#45;&gt;DetailsModule -->
<g id="edge9" class="edge">
<title>DetailsComponent&#45;&gt;DetailsModule</title>
<path fill="none" stroke="black" d="M2844,-85.02C2844,-105.17 2844,-134.8 2844,-134.8 2844,-134.8 2747.79,-134.8 2747.79,-134.8"/>
<polygon fill="black" stroke="black" points="2747.79,-131.3 2737.79,-134.8 2747.79,-138.3 2747.79,-131.3"/>
</g>
<!-- DetailsRoutingModule -->
<g id="node13" class="node">
<title>DetailsRoutingModule</title>
<polygon fill="#8dd3c7" stroke="black" points="2760.32,-84.8 2757.32,-88.8 2736.32,-88.8 2733.32,-84.8 2615.68,-84.8 2615.68,-48.8 2760.32,-48.8 2760.32,-84.8"/>
<text text-anchor="middle" x="2688" y="-62.6" font-family="Times,serif" font-size="14.00">DetailsRoutingModule</text>
</g>
<!-- DetailsRoutingModule&#45;&gt;DetailsModule -->
<g id="edge10" class="edge">
<title>DetailsRoutingModule&#45;&gt;DetailsModule</title>
<path fill="none" stroke="black" d="M2688,-85.02C2688,-85.02 2688,-106.53 2688,-106.53"/>
<polygon fill="black" stroke="black" points="2684.5,-106.53 2688,-116.53 2691.5,-106.53 2684.5,-106.53"/>
</g>
<!-- ErrorDialogLauncherComponent -->
<g id="node14" class="node">
<title>ErrorDialogLauncherComponent</title>
<polygon fill="#ffffb3" stroke="black" points="2575.83,-152.8 2374.17,-152.8 2374.17,-116.8 2575.83,-116.8 2575.83,-152.8"/>
<text text-anchor="middle" x="2475" y="-130.6" font-family="Times,serif" font-size="14.00">ErrorDialogLauncherComponent</text>
</g>
<!-- ErrorDialogLauncherComponent&#45;&gt;SharedModule -->
<g id="edge12" class="edge">
<title>ErrorDialogLauncherComponent&#45;&gt;SharedModule</title>
<path fill="none" stroke="black" d="M2475,-116.71C2475,-93.67 2475,-56.8 2475,-56.8 2475,-56.8 1116.22,-56.8 1116.22,-56.8"/>
<polygon fill="black" stroke="black" points="1116.22,-53.3 1106.22,-56.8 1116.22,-60.3 1116.22,-53.3"/>
</g>
<!-- ErrorDialogPopupComponent -->
<g id="node15" class="node">
<title>ErrorDialogPopupComponent</title>
<polygon fill="#ffffb3" stroke="black" points="2356.26,-152.8 2171.74,-152.8 2171.74,-116.8 2356.26,-116.8 2356.26,-152.8"/>
<text text-anchor="middle" x="2264" y="-130.6" font-family="Times,serif" font-size="14.00">ErrorDialogPopupComponent</text>
</g>
<!-- ErrorDialogPopupComponent&#45;&gt;SharedModule -->
<g id="edge13" class="edge">
<title>ErrorDialogPopupComponent&#45;&gt;SharedModule</title>
<path fill="none" stroke="black" d="M2264,-116.51C2264,-94.59 2264,-60.8 2264,-60.8 2264,-60.8 1116.57,-60.8 1116.57,-60.8"/>
<polygon fill="black" stroke="black" points="1116.57,-57.3 1106.57,-60.8 1116.57,-64.3 1116.57,-57.3"/>
</g>
<!-- LoaderComponent -->
<g id="node16" class="node">
<title>LoaderComponent</title>
<polygon fill="#ffffb3" stroke="black" points="2153.47,-152.8 2032.53,-152.8 2032.53,-116.8 2153.47,-116.8 2153.47,-152.8"/>
<text text-anchor="middle" x="2093" y="-130.6" font-family="Times,serif" font-size="14.00">LoaderComponent</text>
</g>
<!-- LoaderComponent&#45;&gt;SharedModule -->
<g id="edge14" class="edge">
<title>LoaderComponent&#45;&gt;SharedModule</title>
<path fill="none" stroke="black" d="M2093,-116.77C2093,-96.03 2093,-64.8 2093,-64.8 2093,-64.8 1116.27,-64.8 1116.27,-64.8"/>
<polygon fill="black" stroke="black" points="1116.27,-61.3 1106.27,-64.8 1116.27,-68.3 1116.27,-61.3"/>
</g>
<!-- PaginatorComponent -->
<g id="node17" class="node">
<title>PaginatorComponent</title>
<polygon fill="#ffffb3" stroke="black" points="2014.49,-152.8 1879.51,-152.8 1879.51,-116.8 2014.49,-116.8 2014.49,-152.8"/>
<text text-anchor="middle" x="1947" y="-130.6" font-family="Times,serif" font-size="14.00">PaginatorComponent</text>
</g>
<!-- PaginatorComponent&#45;&gt;SharedModule -->
<g id="edge15" class="edge">
<title>PaginatorComponent&#45;&gt;SharedModule</title>
<path fill="none" stroke="black" d="M1947,-116.77C1947,-97.22 1947,-68.8 1947,-68.8 1947,-68.8 1116.44,-68.8 1116.44,-68.8"/>
<polygon fill="black" stroke="black" points="1116.44,-65.3 1106.44,-68.8 1116.44,-72.3 1116.44,-65.3"/>
</g>
</g>
</svg>
